# File created by Blade
# Date/Time:  Wed Jan 21 19:09:01 2015
#---------------------------------------------------------
:version 1.10
:name HOM
:units
  mass 1.0
  length 1.000000
  angle deg
:documentation
     Acclaim Skeleton File
:root
   axis xyz
   order TX TY TZ RX RY RZ
   position 0.000000 0.000000 0.000000
   orientation 0 0 0
:bonedata
   begin
      id 1
      name RightUpLeg_dum
      direction -1.000000 0.000000 0.000000
      length 3.693983
      axis 0.0 0.0 0.0 xyz
   end
   begin
      id 2
      name LeftUpLeg_dum
      direction 1.000000 0.000000 0.000000
      length 3.693983
      axis 0.0 0.0 0.0 xyz
   end
   begin
      id 3
      name Spine_dum
      direction 0.000000 1.000000 0.000000
      length 2.392956
      axis 0.0 0.0 0.0 xyz
   end
   begin
      id 4
      name RightUpLeg
      direction 0.000000 -1.000000 0.000000
      length 15.795667
      axis 0.0 0.0 0.0 xyz
      dof rx ry rz
   end
   begin
      id 5
      name RightLeg
      direction 0.000000 -1.000000 0.000000
      length 14.766989
      axis 0.0 0.0 0.0 xyz
      dof rx ry rz
   end
   begin
      id 6
      name RightFoot
      direction 0.000000 -0.258819 0.965926
      length 4.962790
      axis 15.0 0.0 0.0 xyz
      dof rx ry rz
   end
   begin
      id 7
      name RightToeBase
      direction 0.000000 0.000000 1.000000
      length 2.952750
      axis 0.0 0.0 0.0 xyz
      dof rx ry rz
   end
   begin
      id 8
      name LeftUpLeg
      direction 0.000000 -1.000000 0.000000
      length 15.795667
      axis 0.0 0.0 0.0 xyz
      dof rx ry rz
   end
   begin
      id 9
      name LeftLeg
      direction 0.000000 -1.000000 0.000000
      length 14.766989
      axis 0.0 0.0 0.0 xyz
      dof rx ry rz
   end
   begin
      id 10
      name LeftFoot
      direction 0.000000 -0.258819 0.965926
      length 4.962790
      axis 15.0 0.0 0.0 xyz
      dof rx ry rz
   end
   begin
      id 11
      name LeftToeBase
      direction 0.000000 0.000000 1.000000
      length 2.952750
      axis 0.0 0.0 0.0 xyz
      dof rx ry rz
   end
   begin
      id 12
      name Spine
      direction 0.000000 1.000000 0.000000
      length 0.000000
      axis 0.0 0.0 0.0 xyz
      dof rx ry rz
   end
   begin
      id 13
      name Spine_dum1
      direction 0.000000 1.000000 0.000000
      length 13.207411
      axis 0.0 0.0 0.0 xyz
   end
   begin
      id 14
      name Spine_dum2
      direction 0.000000 1.000000 0.000000
      length 13.207411
      axis 0.0 0.0 0.0 xyz
   end
   begin
      id 15
      name Spine_dum3
      direction 0.000000 1.000000 0.000000
      length 19.250100
      axis 0.0 0.0 0.0 xyz
   end
   begin
      id 16
      name RightShoulder
      direction -1.000000 0.000000 0.000000
      length 8.140465
      axis 0.0 0.0 90.0 xyz
      dof rx ry rz
   end
   begin
      id 17
      name RightArm
      direction -1.000000 0.000000 0.000000
      length 10.649840
      axis 0.0 0.0 90.0 xyz
      dof rx ry rz
   end
   begin
      id 18
      name RightForeArm
      direction -1.000000 0.000000 0.000000
      length 8.304624
      axis 0.0 0.0 90.0 xyz
      dof ry rz rx
   end
   begin
      id 19
      name RightHand
      direction -1.000000 0.000000 0.000000
      length 0.000000
      axis 0.0 0.0 90.0 xyz
      dof rx ry rz
   end
   begin
      id 20
      name RightHand_dum1
      direction -1.000000 0.000000 0.000000
      length 3.937000
      axis 0.0 0.0 90.0 xyz
   end
   begin
      id 21
      name RightHand_dum2
      direction 0.000000 0.000000 0.000000
      length 0.000000
      axis 0.0 0.0 90.0 xyz
   end
   begin
      id 22
      name RightHandThumb1
      direction 0.000000 0.000000 1.000000
      length 3.937000
      axis 0.0 0.0 90.0 xyz
      dof rx rz ry
   end
   begin
      id 23
      name LeftShoulder
      direction 1.000000 0.000000 0.000000
      length 8.140465
      axis 0.0 0.0 -90.0 xyz
      dof rx ry rz
   end
   begin
      id 24
      name LeftArm
      direction 1.000000 0.000000 0.000000
      length 10.649840
      axis 0.0 0.0 -90.0 xyz
      dof rx ry rz
   end
   begin
      id 25
      name LeftForeArm
      direction 1.000000 0.000000 0.000000
      length 8.304624
      axis 0.0 0.0 -90.0 xyz
      dof ry rz rx
   end
   begin
      id 26
      name LeftHand
      direction 1.000000 0.000000 0.000000
      length 0.000000
      axis 0.0 0.0 -90.0 xyz
      dof rx ry rz
   end
   begin
      id 27
      name LeftHand_dum1
      direction 1.000000 0.000000 0.000000
      length 3.937000
      axis 0.0 0.0 -90.0 xyz
   end
   begin
      id 28
      name LeftHand_dum2
      direction 0.000000 0.000000 0.000000
      length 0.000000
      axis 0.0 0.0 -90.0 xyz
   end
   begin
      id 29
      name LeftHandThumb1
      direction 0.000000 0.000000 1.000000
      length 3.937000
      axis 0.0 0.0 -90.0 xyz
      dof rx rz ry
   end
   begin
      id 30
      name Head
      direction 0.000000 1.000000 0.000000
      length 4.527550
      axis 0.0 0.0 0.0 xyz
      dof rx ry rz
   end
:hierarchy
   begin
      root RightUpLeg_dum LeftUpLeg_dum Spine_dum
      RightUpLeg_dum RightUpLeg
      LeftUpLeg_dum LeftUpLeg
      Spine_dum Spine
      RightUpLeg RightLeg
      RightLeg RightFoot
      RightFoot RightToeBase
      LeftUpLeg LeftLeg
      LeftLeg LeftFoot
      LeftFoot LeftToeBase
      Spine Spine_dum1 Spine_dum2 Spine_dum3
      Spine_dum1 RightShoulder
      Spine_dum2 LeftShoulder
      Spine_dum3 Head
      RightShoulder RightArm
      RightArm RightForeArm
      RightForeArm RightHand
      RightHand RightHand_dum1 RightHand_dum2
      RightHand_dum2 RightHandThumb1
      LeftShoulder LeftArm
      LeftArm LeftForeArm
      LeftForeArm LeftHand
      LeftHand LeftHand_dum1 LeftHand_dum2
      LeftHand_dum2 LeftHandThumb1
   end

# File created by Blade
# Date/Time:  Wed Jan 21 19:08:52 2015
# Frame Rate: 120.000 fps
#------------------------------------------------------
:FULLY-SPECIFIED
:DEGREES
1446
root -3.280825 32.390267 -6.276166 49.259133 -2.844379 2.108541
RightUpLeg -44.894157 -4.869984 7.367102
RightLeg 32.299744 -0.000000 -0.000000
RightFoot -19.640063 12.588516 33.363701
RightToeBase 12.862054 -0.000000 -0.000000
LeftUpLeg -53.672546 -0.603765 -11.837994
LeftLeg 14.880971 -0.000000 -0.000000
LeftFoot -15.605282 -6.119073 -12.467271
LeftToeBase 16.491913 -0.000000 -0.000000
Spine -44.236970 -5.372029 -4.991755
RightShoulder -16.960233 4.786178 -34.986353
RightArm -7.297452 -17.596113 82.922486
RightForeArm 25.893957 0.000000 5.948617
RightHand 10.011797 -0.000000 4.131538
RightHandThumb1 -24.326973 -0.000000 -32.862282
LeftShoulder -9.522045 9.321928 24.394407
LeftArm 12.090244 3.907857 -83.587908
LeftForeArm 18.409617 -0.000000 27.948059
LeftHand -23.279529 -0.000000 9.580550
LeftHandThumb1 -26.253704 0.000000 33.147579
Head 5.125534 8.127220 3.273641
1447
root -3.268929 32.378049 -6.255374 49.323046 -3.310899 2.238543
RightUpLeg -44.658116 -4.826775 7.707570
RightLeg 32.051468 -0.000000 -0.000000
RightFoot -19.023279 13.338122 33.658534
RightToeBase 12.012797 -0.000000 -0.000000
LeftUpLeg -53.686613 -0.499218 -12.169532
LeftLeg 14.897651 -0.000000 -0.000000
LeftFoot -15.761180 -6.170575 -12.589781
LeftToeBase 16.574402 -0.000000 -0.000000
Spine -44.382512 -5.307908 -5.525010
RightShoulder -16.937403 4.981220 -35.168475
RightArm -7.268441 -18.336788 82.504601
RightForeArm 26.582481 -0.000000 6.325529
RightHand 10.013102 -0.000000 3.668035
RightHandThumb1 -24.326973 -0.000000 -32.862282
LeftShoulder -9.632953 9.361868 24.344059
LeftArm 11.851575 3.382799 -83.408038
LeftForeArm 18.501055 -0.000000 28.097738
LeftHand -23.422763 -0.000000 9.615931
LeftHandThumb1 -26.253704 0.000000 33.147579
Head 4.990014 8.082386 3.244359
1448
root -3.256800 32.366477 -6.240303 49.392891 -3.784499 2.364139
RightUpLeg -44.414707 -4.706449 7.997483
RightLeg 31.735505 -0.000000 -0.000000
RightFoot -18.455260 14.137389 34.182110
RightToeBase 11.874875 -0.000000 -0.000000
LeftUpLeg -53.718914 -0.423100 -12.485814
LeftLeg 14.922748 -0.000000 -0.000000
LeftFoot -15.931057 -6.158307 -12.774709
LeftToeBase 16.654685 -0.000000 -0.000000
Spine -44.524884 -5.248923 -6.028918
RightShoulder -16.863934 5.202245 -35.386411
RightArm -7.163393 -18.330726 82.039983
RightForeArm 26.626376 -0.000000 6.576788
RightHand 10.289208 0.000000 3.161429
RightHandThumb1 -24.326973 -0.000000 -32.862282
LeftShoulder -9.768502 9.411818 24.266299
LeftArm 11.693034 2.905300 -83.189116
LeftForeArm 18.587080 -0.000000 28.044518
LeftHand -23.457806 -0.000000 9.657020
LeftHandThumb1 -26.253704 0.000000 33.147579
Head 4.837305 8.068514 3.157921
1449
root -3.244363 32.355876 -6.222543 49.450800 -4.331952 2.515577
RightUpLeg -44.153712 -4.671615 8.291298
RightLeg 31.327807 -0.000000 -0.000000
RightFoot -17.523079 15.091839 34.925533
RightToeBase 11.247773 -0.000000 -0.000000
LeftUpLeg -53.692616 -0.321025 -12.850882
LeftLeg 14.837911 -0.000000 -0.000000
LeftFoot -16.029474 -6.186823 -12.953632
LeftToeBase 16.727249 -0.000000 -0.000000
Spine -44.682135 -5.146639 -6.615929
RightShoulder -16.730002 5.439005 -35.579976
RightArm -7.000901 -16.958442 81.425985
RightForeArm 25.382975 -0.000000 6.690077
RightHand 10.314480 -0.000000 3.445217
RightHandThumb1 -24.326973 -0.000000 -32.862282
LeftShoulder -9.868800 9.494651 24.174737
LeftArm 11.530285 2.418047 -82.956061
LeftForeArm 18.573255 -0.000000 27.997091
LeftHand -23.411530 -0.000000 9.646488
LeftHandThumb1 -26.253704 0.000000 33.147579
Head 4.708171 8.053337 3.029843
1450
root -3.228174 32.342520 -6.207059 49.500091 -4.840754 2.705248
RightUpLeg -43.950867 -4.663679 8.588079
RightLeg 30.994324 -0.000000 -0.000000
RightFoot -17.119456 15.699397 35.012975
RightToeBase 10.955801 -0.000000 -0.000000
LeftUpLeg -53.660729 -0.339472 -13.143213
LeftLeg 14.759408 -0.000000 -0.000000
LeftFoot -16.151232 -6.145282 -13.133942
LeftToeBase 16.825712 -0.000000 -0.000000
Spine -44.817401 -5.083129 -7.208085
RightShoulder -16.659790 5.697569 -35.805006
RightArm -6.893751 -16.630527 80.942800
RightForeArm 25.045154 -0.000000 6.892317
RightHand 10.356617 -0.000000 3.378506
RightHandThumb1 -24.326973 -0.000000 -32.862282
LeftShoulder -9.965862 9.536160 24.100694
LeftArm 11.315388 1.907542 -82.766744
LeftForeArm 18.670561 -0.000000 27.944917
LeftHand -23.389545 -0.000000 9.550505
LeftHandThumb1 -26.253704 0.000000 33.147579
Head 4.558757 8.050126 2.919988
1451
root -3.210295 32.330205 -6.194385 49.576381 -5.354834 2.896244
RightUpLeg -43.783476 -4.867933 8.984084
RightLeg 30.584990 -0.000000 -0.000000
RightFoot -16.224491 16.728852 35.786623
RightToeBase 10.971402 -0.000000 -0.000000
LeftUpLeg -53.679700 -0.351808 -13.464418
LeftLeg 14.729856 -0.000000 -0.000000
LeftFoot -16.221119 -6.124124 -13.310129
LeftToeBase 16.742339 -0.000000 -0.000000
Spine -44.971668 -5.043942 -7.786915
RightShoulder -16.629531 5.871412 -35.987451
RightArm -6.695780 -17.473730 80.550849
RightForeArm 25.778984 -0.000000 7.181277
RightHand 10.601120 -0.000000 2.676667
RightHandThumb1 -24.326973 -0.000000 -32.862282
LeftShoulder -10.097195 9.537403 24.029438
LeftArm 11.073222 1.452524 -82.584334
LeftForeArm 18.683002 -0.000000 27.854599
LeftHand -23.359378 0.000000 9.466394
LeftHandThumb1 -26.253704 0.000000 33.147579
Head 4.367512 8.072192 2.811277
1452
root -3.196284 32.318950 -6.180979 49.630789 -5.840207 3.057348
RightUpLeg -43.534818 -4.893835 9.331862
RightLeg 30.039302 -0.000000 -0.000000
RightFoot -15.551286 17.439627 35.906153
RightToeBase 10.371792 -0.000000 -0.000000
LeftUpLeg -53.676892 -0.328744 -13.757563
LeftLeg 14.670232 -0.000000 -0.000000
LeftFoot -16.297563 -6.089875 -13.418730
LeftToeBase 16.739547 -0.000000 -0.000000
Spine -45.117659 -4.975724 -8.350591
RightShoulder -16.566073 6.173984 -36.202350
RightArm -6.631385 -17.489851 80.127122
RightForeArm 25.695236 0.000000 7.422077
RightHand 10.673760 -0.000000 2.423786
RightHandThumb1 -24.326973 -0.000000 -32.862282
LeftShoulder -10.178160 9.588320 23.931019
LeftArm 10.914460 0.918759 -82.400523
LeftForeArm 18.676074 -0.000000 27.690045
LeftHand -23.465505 -0.000000 9.497163
LeftHandThumb1 -26.253704 0.000000 33.147579
Head 4.204313 8.023101 2.687489
